<svg width="72" height="93" viewBox="0 0 72 93" fill="none" xmlns="http://www.w3.org/2000/svg">
<path d="M7.7489 27.4555L7.78931 27.2856C7.7489 27.2411 7.7489 27.2856 7.7489 27.4555Z" fill="#414042"/>
<path d="M10.5774 29.1869C11.8866 29.3973 16.4082 29.6117 18.8164 29.6117C19.366 29.6117 19.8307 29.6117 20.0852 29.5712C20.5944 29.5308 21.0146 29.0211 21.0146 28.4709C21.0146 27.7953 20.4246 27.4151 19.8307 27.4555C18.6063 27.5405 12.521 27.3301 10.832 27.0753L9.98746 26.9499C10.3673 25.2994 13.4948 5.84551 14.1292 1.35927C14.2141 0.768658 13.7049 0.133545 13.115 0.133545C12.6058 0.133545 12.1008 0.513804 12.0604 1.02351C12.0199 1.36332 8.21763 25.0041 7.79335 27.2897C7.87821 27.4596 8.00347 28.305 8.13277 28.4305C8.59341 28.8916 9.43792 29.0211 10.5774 29.1869Z" fill="#FBB040"/>
<path d="M19.3256 25.4248C21.7015 25.4248 24.9907 24.2233 27.5606 21.517C28.1101 23.6367 29.3142 25.0445 31.4962 25.0445C34.5389 25.0445 36.7774 22.5931 37.8765 20.3479C37.9614 20.2225 37.9614 20.0526 37.9614 19.9272C37.9614 19.5874 37.8361 19.2516 37.4967 19.0372C37.327 18.9118 37.1573 18.8673 36.9916 18.8673C36.5673 18.8673 36.1471 19.1222 36.0218 19.4175C35.347 21.2379 33.7833 22.9693 31.6296 22.9693C29.7264 22.9693 29.3061 20.4733 29.3061 18.2322C29.3061 15.4814 29.8961 12.055 30.6598 9.09792C32.0134 8.84307 33.2782 8.37786 34.8015 7.95715C35.2662 7.83175 35.5612 7.40699 35.5612 6.94178C35.5612 6.22171 34.8419 5.67155 34.2075 5.92641C32.8984 6.43207 32.264 6.56152 31.2942 6.81637C31.674 5.5057 32.0538 4.53078 32.3488 3.94016C32.3892 3.77026 32.4337 3.60036 32.4337 3.47495C32.4337 3.00974 32.1791 2.62948 31.7589 2.45958C31.5043 2.33418 30.7042 2.41913 30.4497 3.00974C29.985 3.89971 29.4799 5.33579 28.9304 7.28158C27.4959 7.53644 26.2271 7.66184 25.1684 7.66184C24.5341 7.66184 24.1138 8.12705 24.1138 8.71767C24.1138 9.30828 24.5381 9.77349 25.1684 9.77349C26.1423 9.77349 27.1969 9.68854 28.3808 9.51864C27.7464 12.0995 27.1969 15.2711 27.1969 18.1068C27.1969 18.3212 27.2009 18.5316 27.209 18.7419C27.1282 18.8188 27.0555 18.9037 26.9868 18.9927C24.9583 21.5291 21.5803 23.3495 19.2973 23.3495C17.2688 23.3495 16.3799 21.8689 16.3799 20.3884C19.9721 19.2031 23.7299 17.0469 23.7299 14.2557C23.7299 12.6052 22.3763 11.4644 20.7317 11.4644C17.1395 11.4644 14.2666 16.4563 14.2666 20.178C14.2545 23.2241 16.3233 25.4248 19.3256 25.4248ZM20.76 13.5801C21.3096 13.5801 21.6045 13.835 21.6045 14.2152C21.6045 14.555 21.3944 14.9758 20.9701 15.4855C20.166 16.3754 18.7316 17.2209 16.7435 18.0219C17.3375 16.3714 18.7316 13.5801 20.76 13.5801Z" fill="#FBB040"/>
<path d="M37.4038 3.34551C37.4442 3.77027 37.4886 4.40134 37.0643 5.2468C36.9795 5.37221 36.9795 5.54211 36.9795 5.67156C36.9795 5.84146 37.1048 5.96687 37.2745 5.92642C37.3149 5.92642 37.3593 5.88596 37.3997 5.88596C37.525 5.84551 37.6947 5.71606 37.8644 5.59066C38.6241 4.83014 39.7231 3.05425 39.4686 1.52917C39.214 0.513799 38.5796 -0.076815 37.8644 0.00813637C36.7249 0.0930877 36.3007 1.14891 36.4704 2.20878C36.5593 2.7104 36.9391 3.13516 37.4038 3.34551Z" fill="#FBB040"/>
<path d="M40.6161 26.7355C40.6161 29.2314 42.4749 31.0518 44.9276 31.0518C47.1661 31.0518 49.1097 29.3609 49.1097 27.1602C49.1097 25.9345 48.5198 24.6643 47.546 23.4385C47.251 23.0583 46.9116 22.678 46.4913 22.2978C47.3358 21.9175 49.4491 21.6626 50.6331 21.6626C51.9423 21.6626 53.3808 21.6626 54.6455 22.1683C54.7708 22.2088 54.9001 22.2533 55.0253 22.2533C55.4052 22.2533 55.7446 21.9984 55.9143 21.4482C56.084 20.8981 55.7446 20.3075 55.1951 20.1376C53.6313 19.6724 52.112 19.547 50.6331 19.547C48.8996 19.547 46.4509 19.8423 44.8872 20.6473L44.1679 19.8868C43.4487 19.1262 42.7294 18.1958 42.7294 17.0105C42.7294 15.6149 44.3336 13.4588 46.0267 13.4588C46.7459 13.4588 47.4651 13.839 47.4651 14.8139C47.4651 15.4895 47.0409 16.3795 47.0409 16.6748C47.0409 17.2249 47.4651 17.7306 48.0955 17.7306C48.5198 17.7306 48.8996 17.4758 49.0653 17.055C49.4047 16.25 49.5744 15.4895 49.5744 14.7695C49.5744 12.6983 48.0551 11.3431 46.1115 11.3431C43.2386 11.3431 40.6202 14.2193 40.6202 17.0105C40.6202 18.746 41.3394 19.8463 42.6042 21.2824L43.0284 21.7881C41.5051 23.0542 40.6161 24.8746 40.6161 26.7355ZM44.5437 23.2686C45.5135 24.284 46.9924 25.7646 46.9924 27.0753C46.9924 28.1756 46.0226 28.9806 44.9235 28.9806C43.8245 28.9806 42.7254 28.1351 42.7254 26.6546C42.7294 25.5097 43.3194 24.1991 44.5437 23.2686Z" fill="#FBB040"/>
<path d="M70.2548 20.1699C68.0688 18.301 64.7594 18.6772 63.0462 20.9911L48.2571 40.9588C47.8975 41.4482 47.9298 42.1117 48.3137 42.5607L47.3439 43.7015C46.6691 44.4944 45.5216 44.6481 44.6407 44.0979C33.2863 37.0267 18.0204 39.5065 9.6036 50.6877C1.72015 61.161 2.79094 76.076 12.0967 85.3034C23.14 96.25 40.9152 95.3398 50.8149 83.7217C59.4055 73.6408 59.1065 58.9684 50.6856 49.2597C50.0068 48.479 49.9866 47.322 50.6573 46.5332L51.6311 45.3924C52.1322 45.6999 52.7949 45.6311 53.2192 45.1982L70.5862 27.4313C72.5944 25.3722 72.4449 22.0389 70.2548 20.1699ZM45.3478 83.2888C44.8831 83.6812 44.2972 84.1424 43.6265 84.6642C42.9072 85.1173 42.1395 85.6998 41.198 86.161C40.7374 86.4077 40.2646 86.6788 39.7353 86.881C39.4767 86.9903 39.214 87.1035 38.9433 87.2208C38.8099 87.2775 38.6725 87.3341 38.5392 87.3948C38.4018 87.4474 38.2564 87.4878 38.1149 87.5364C37.8321 87.6294 37.5411 87.7225 37.2502 87.8196C36.9552 87.9126 36.6643 88.0259 36.3572 88.0865C36.0501 88.1594 35.739 88.2322 35.4278 88.305C35.1127 88.3697 34.8015 88.4708 34.4783 88.5032C34.155 88.5518 33.8277 88.5963 33.5004 88.6448C33.1731 88.6893 32.8418 88.754 32.5064 88.7621C32.171 88.7823 31.8316 88.8026 31.4922 88.8187C31.1528 88.839 30.8093 88.8632 30.4658 88.843C29.092 88.8268 27.6939 88.7136 26.3241 88.4385L25.2978 88.2241C25.124 88.1917 24.9583 88.1472 24.7927 88.0906L24.2916 87.9369C23.9603 87.8357 23.6289 87.7346 23.2976 87.6335C22.9703 87.5242 22.6551 87.3786 22.3359 87.2532C22.0167 87.1238 21.7015 86.9943 21.3863 86.8649C21.0792 86.7192 20.7802 86.5574 20.4812 86.4037C20.1822 86.25 19.8832 86.0963 19.5882 85.9425C19.3054 85.7726 19.0306 85.5865 18.7518 85.4126C17.6285 84.7411 16.6345 83.9482 15.7415 83.1472C14.8525 82.3422 14.0767 81.5129 13.414 80.6998C12.7513 79.8867 12.2018 79.1019 11.7533 78.3778C11.3128 77.6497 10.9532 77.0024 10.6905 76.4523C10.4239 75.9021 10.2299 75.4652 10.1087 75.1618C9.98342 74.8584 9.91877 74.6966 9.91877 74.6966L10.0319 74.6521C10.0319 74.6521 10.1168 74.8058 10.2744 75.093C10.4239 75.3802 10.6784 75.7888 10.9896 76.3066C11.3007 76.8244 11.7169 77.4272 12.2018 78.1027C12.6988 78.7702 13.2928 79.4943 13.9797 80.2387C14.6707 80.9789 15.4667 81.7314 16.3516 82.4676C16.7961 82.8357 17.2729 83.1877 17.7497 83.5234C17.879 83.6124 18.0123 83.6974 18.1416 83.7864L18.3396 83.9199L18.4366 83.9887C18.4407 83.9887 18.4932 84.021 18.5215 84.0372C18.7841 84.195 19.0508 84.3527 19.3175 84.5145C19.5842 84.6723 19.8509 84.8382 20.1256 84.9959C20.4125 85.1335 20.6994 85.271 20.9863 85.4086C21.2772 85.5461 21.5601 85.6917 21.8551 85.8212C22.1541 85.9385 22.4571 86.0558 22.7602 86.1772C23.0632 86.2904 23.3623 86.428 23.6774 86.5251C23.9926 86.6181 24.3078 86.7071 24.623 86.8001L25.0957 86.9377C25.2533 86.9862 25.4109 87.0307 25.5766 87.055L26.5504 87.2492C27.8434 87.5242 29.1688 87.6497 30.4699 87.678C30.7972 87.7022 31.1204 87.682 31.4437 87.6699C31.767 87.6618 32.0902 87.6537 32.4094 87.6416C32.7327 87.6456 33.0438 87.589 33.359 87.5607C33.6742 87.5242 33.9853 87.4878 34.2964 87.4555C34.9147 87.3786 35.5087 87.2128 36.1067 87.1197C36.4057 87.0752 36.6886 86.9781 36.9754 86.9053C37.2583 86.8285 37.5411 86.7475 37.82 86.6747C37.9573 86.6343 38.0988 86.6019 38.2321 86.5574C38.3655 86.5089 38.4988 86.4603 38.6281 86.4077C38.8907 86.3107 39.1494 86.2136 39.4039 86.1246C39.9252 85.9628 40.3979 85.7281 40.8586 85.5178C41.3192 85.3074 41.7677 85.1132 42.1637 84.8746C42.5718 84.6521 42.9598 84.4377 43.3234 84.2395C44.0063 83.7823 44.6205 83.398 45.1175 83.0501C45.5903 82.6658 45.9822 82.3827 46.2408 82.1804C46.4994 81.9822 46.6409 81.873 46.6409 81.873L46.7257 81.9579C46.7257 81.966 46.2247 82.4474 45.3478 83.2888ZM24.7805 82.3018C12.1816 75.6391 11.5593 52.6699 21.649 51.4685C29.2981 50.5583 27.9363 59.0089 31.7589 59.818C34.2439 60.3439 43.6628 52.3342 47.5823 61.3188C52.5767 72.7791 37.3795 88.9644 24.7805 82.3018ZM50.6654 56.5898C50.9321 57.14 51.1261 57.5769 51.2473 57.8803C51.3725 58.1837 51.4372 58.3455 51.4372 58.3455L51.324 58.39C51.324 58.39 51.2392 58.2362 51.0816 57.949C50.9321 57.6618 50.6775 57.2532 50.3704 56.7354C50.0593 56.2176 49.6431 55.6149 49.1582 54.9393C48.6612 54.2719 48.0672 53.5477 47.3803 52.8034C46.6893 52.0631 45.8933 51.3107 45.0084 50.5744C44.5639 50.2063 44.0871 49.8544 43.6103 49.5186C43.481 49.4296 43.3477 49.3447 43.2184 49.2557L43.0204 49.1181L42.9234 49.0494C42.9193 49.0494 42.8668 49.017 42.8385 49.0008C42.5759 48.8431 42.3092 48.6853 42.0425 48.5235C41.7758 48.3657 41.5091 48.1999 41.2344 48.0421C40.9475 47.9045 40.6606 47.767 40.3737 47.6295C40.0828 47.4919 39.7999 47.3463 39.5049 47.2168C39.2059 47.0995 38.9029 46.9822 38.5998 46.8609C38.2968 46.7476 37.9977 46.61 37.6826 46.513C37.3674 46.4199 37.0522 46.3309 36.737 46.2379L36.2643 46.1003C36.1067 46.0518 35.9491 46.0073 35.7834 45.979L34.8096 45.7848C33.5166 45.5097 32.1912 45.3843 30.8901 45.356C30.5628 45.3317 30.2396 45.352 29.9163 45.3641C29.593 45.3722 29.2698 45.3803 28.9506 45.3924C28.6273 45.3884 28.3162 45.445 28.001 45.4733C27.6858 45.5097 27.3747 45.5461 27.0636 45.5785C26.4453 45.6554 25.8513 45.8212 25.2533 45.9143C24.9543 45.9588 24.6714 46.0558 24.3846 46.1287C24.1017 46.2055 23.8189 46.2864 23.54 46.3592C23.4027 46.3997 23.2612 46.4321 23.1279 46.4766C22.9945 46.5251 22.8612 46.5736 22.7319 46.6262C22.4693 46.7233 22.2106 46.8204 21.9561 46.9094C21.4348 47.0712 20.9621 47.3058 20.5014 47.5162C20.0408 47.7266 19.5923 47.9207 19.1963 48.1594C18.7882 48.3819 18.4002 48.5963 18.0366 48.7945C17.3537 49.2516 16.7395 49.6359 16.2425 49.9838C15.7697 50.3681 15.3778 50.6513 15.1192 50.8536C14.8606 51.0518 14.7191 51.157 14.7191 51.157L14.6343 51.072C14.6343 51.072 15.1353 50.5906 16.0122 49.7492C16.4769 49.3568 17.0628 48.8956 17.7335 48.3738C18.4528 47.9207 19.2205 47.3382 20.162 46.877C20.6226 46.6303 21.0954 46.3592 21.6247 46.157C21.8833 46.0478 22.146 45.9345 22.4167 45.8172C22.5501 45.7605 22.6875 45.7039 22.8208 45.6432C22.9582 45.5906 23.1036 45.5502 23.2451 45.5016C23.5279 45.4086 23.8189 45.3156 24.1098 45.2185C24.4048 45.1254 24.6957 45.0122 25.0028 44.9515C25.3099 44.8787 25.621 44.8058 25.9322 44.733C26.2473 44.6683 26.5585 44.5672 26.8817 44.5348C27.205 44.4863 27.5323 44.4418 27.8596 44.3932C28.1869 44.3487 28.5182 44.284 28.8536 44.2759C29.189 44.2557 29.5284 44.2355 29.8678 44.2193C30.2072 44.199 30.5507 44.1748 30.8942 44.195C32.268 44.2112 33.6661 44.3245 35.0359 44.5995L36.0622 44.8139C36.236 44.8463 36.4017 44.8908 36.5673 44.9474L37.0684 45.1011C37.3997 45.2023 37.7311 45.3034 38.0624 45.4045C38.3897 45.5138 38.7049 45.6594 39.0241 45.7848C39.3433 45.9143 39.6585 46.0437 39.9737 46.1732C40.2808 46.3188 40.5798 46.4806 40.8788 46.6343C41.1778 46.788 41.4768 46.9418 41.7718 47.0955C42.0546 47.2654 42.3294 47.4515 42.6082 47.6254C43.7315 48.2969 44.7256 49.0898 45.6186 49.8908C46.5075 50.6958 47.2833 51.5251 47.946 52.3382C48.6087 53.1513 49.1582 53.9361 49.6067 54.6602C50.0431 55.3924 50.4028 56.0396 50.6654 56.5898ZM68.1415 25.4046C67.5031 26.1529 66.3757 26.246 65.6282 25.6028C64.8807 24.9636 64.7877 23.835 65.4302 23.0866C66.0686 22.3382 67.196 22.2452 67.9435 22.8884C68.6911 23.5275 68.78 24.6521 68.1415 25.4046Z" fill="#58595B"/>
<path d="M60.5611 63.2201C60.5127 62.9005 60.4642 62.5809 60.4197 62.2654C60.2338 60.9951 59.8863 59.7735 59.5308 58.6084C59.3287 58.034 59.1671 57.4555 58.9206 56.9215C58.8075 56.6505 58.6943 56.3876 58.5852 56.1206C58.468 55.8617 58.3428 55.6068 58.2216 55.356C57.9872 54.8544 57.7407 54.373 57.4781 53.924C57.2275 53.4668 56.9487 53.0461 56.6901 52.6416C56.4356 52.233 56.1729 51.8568 55.9062 51.5049C55.7769 51.3309 55.6476 51.161 55.5224 50.9952C55.389 50.8333 55.2638 50.6796 55.1385 50.5299C54.6617 49.9191 54.1728 49.4337 53.7929 49.0291C53.603 48.8228 53.4212 48.661 53.2636 48.5194C53.106 48.3778 52.9686 48.2565 52.8595 48.1554C52.6413 47.9571 52.5241 47.852 52.5241 47.852L52.4029 47.949C52.4029 47.949 52.4999 48.0704 52.6817 48.2969C52.8595 48.5275 53.1464 48.8511 53.4616 49.288C53.7808 49.7249 54.1768 50.2549 54.5809 50.894C54.6859 51.0518 54.791 51.2136 54.9001 51.3835C55.0011 51.5575 55.1062 51.7355 55.2153 51.9175C55.4294 52.2816 55.6597 52.6659 55.8699 53.0825C56.084 53.4952 56.3184 53.9199 56.5204 54.3811C56.6255 54.6076 56.7346 54.8382 56.8437 55.0769C56.9487 55.3115 57.0417 55.5583 57.1427 55.805C57.2397 56.0518 57.3488 56.3026 57.4417 56.5575C57.5306 56.8164 57.6235 57.0752 57.7124 57.3422C57.9104 57.8681 58.0519 58.4223 58.2175 58.9765C58.3751 59.5348 58.5004 60.1133 58.6337 60.6958C58.7347 61.2864 58.8762 61.877 58.9408 62.4838C58.9812 62.7872 59.0216 63.0906 59.062 63.394C59.0863 63.7015 59.1146 64.0049 59.1388 64.3123C59.2035 64.9272 59.1994 65.5461 59.2237 66.1651C59.2277 66.784 59.2237 67.4029 59.1954 68.0218C59.1469 68.6408 59.1307 69.2476 59.0459 69.8584C58.9085 71.072 58.7024 72.2532 58.4276 73.3859C58.1529 74.5146 57.8175 75.5906 57.4498 76.5898C57.0861 77.593 56.6659 78.5113 56.2618 79.3487C55.8416 80.178 55.4335 80.9304 55.0294 81.5696C54.8354 81.8932 54.6415 82.1925 54.4596 82.4636C54.2819 82.7387 54.1121 82.9854 53.9505 83.2039C53.6394 83.6489 53.3767 83.9846 53.1949 84.2152C53.0171 84.4458 52.9201 84.5671 52.9201 84.5671L53.0414 84.6642C53.0414 84.6642 53.1585 84.555 53.3727 84.3568C53.5909 84.1545 53.9182 83.8633 54.2899 83.4506C54.4839 83.2524 54.69 83.0218 54.9082 82.767C55.1344 82.5162 55.3607 82.233 55.5991 81.9256C56.0881 81.3188 56.5891 80.5946 57.0942 79.7694C57.5912 78.9442 58.1084 78.0259 58.5448 77.0065C58.9933 75.9911 59.4217 74.8908 59.749 73.7136C59.9106 73.127 60.0682 72.5243 60.1975 71.9094C60.3308 71.3066 60.4561 70.6149 60.5207 70.0283L60.5773 69.5712C60.6056 69.373 60.6096 69.2395 60.6258 69.0696C60.6541 68.746 60.6783 68.4223 60.7066 68.0987C60.7389 67.7751 60.7308 67.4474 60.747 67.1238C60.751 66.7961 60.7793 66.4725 60.7632 66.1448C60.7268 65.4935 60.7187 64.8382 60.642 64.1909C60.6258 63.8673 60.5935 63.5437 60.5611 63.2201Z" fill="#58595B"/>
<path d="M8.949 85.0243C8.79546 84.8382 8.63383 84.644 8.46008 84.4336C8.29845 84.2192 8.12874 83.9927 7.9469 83.754C7.5792 83.2888 7.22361 82.7548 6.84783 82.1925C6.65387 81.9175 6.47608 81.6141 6.29425 81.3066C6.11646 80.9992 5.91442 80.6958 5.74471 80.3681C5.57096 80.0404 5.39721 79.7087 5.21942 79.373C5.03758 79.0372 4.89212 78.6812 4.72645 78.3293C4.56078 77.9773 4.39915 77.6213 4.26177 77.2532C4.12034 76.8851 3.96679 76.5251 3.83345 76.1529C3.70415 75.7807 3.57888 75.4086 3.44958 75.0364C3.31624 74.6683 3.22734 74.284 3.11824 73.9118C3.00914 73.5396 2.90812 73.1675 2.83135 72.7953C2.75054 72.4231 2.66972 72.055 2.58891 71.695C2.47577 70.9628 2.32626 70.2629 2.27373 69.5874C2.23736 69.2516 2.201 68.9239 2.16867 68.6044C2.15251 68.2848 2.13635 67.9773 2.12018 67.682C2.07978 67.0914 2.08382 66.5493 2.08382 66.068C2.08382 65.8252 2.08382 65.6027 2.08382 65.3924C2.09594 65.1861 2.10402 64.9919 2.11614 64.822C2.15655 64.1303 2.17675 63.7379 2.17675 63.7379L2.02321 63.7217C2.02321 63.7217 1.99088 63.8188 1.93027 64.0008C1.8737 64.1828 1.78076 64.4498 1.68783 64.7977C1.63934 64.9717 1.58681 65.1618 1.53024 65.3722C1.48175 65.5825 1.44538 65.8131 1.40093 66.0599C1.35649 66.3066 1.31204 66.5696 1.25951 66.8487C1.20698 67.1278 1.20294 67.4191 1.17061 67.7265C1.14637 68.034 1.11808 68.3576 1.0898 68.6893C1.08172 69.021 1.09384 69.3649 1.09384 69.7209C1.08172 70.4328 1.15445 71.1812 1.23931 71.9539C1.29992 72.3382 1.36053 72.7265 1.42518 73.123C1.4575 73.3212 1.48579 73.5194 1.5262 73.7176C1.57469 73.9158 1.62317 74.11 1.67166 74.3082C1.77672 74.7006 1.8535 75.1092 1.99088 75.5016C2.12018 75.894 2.24949 76.2904 2.37879 76.6828C2.52426 77.0712 2.68992 77.4514 2.84347 77.8357C2.98894 78.2241 3.17885 78.5882 3.36473 78.9563C3.70819 79.6966 4.15267 80.3722 4.54866 81.0356C4.75069 81.3673 4.96889 81.6788 5.19113 81.9781C5.41337 82.2775 5.62349 82.5728 5.85785 82.8438C6.08413 83.1149 6.29829 83.3859 6.52053 83.6367C6.73873 83.8875 6.97713 84.11 7.19129 84.3285C7.40949 84.5469 7.60748 84.7613 7.8176 84.9514C8.0358 85.1335 8.23784 85.3074 8.43179 85.4733C8.62575 85.6351 8.7995 85.7888 8.97325 85.9223C9.14296 86.0558 9.30863 86.161 9.45005 86.2621C9.73694 86.4684 9.97939 86.6141 10.137 86.7192C10.2986 86.8204 10.3875 86.873 10.3875 86.873L10.5047 86.7678C10.5047 86.7678 10.234 86.4765 9.76523 85.9668C9.52279 85.716 9.25206 85.3964 8.949 85.0243Z" fill="#58595B"/>
<path d="M35.1086 67.6416C32.1427 67.0146 29.2294 68.9118 28.599 71.8811C27.9727 74.8503 29.8678 77.767 32.8337 78.398C35.7996 79.0251 38.7129 77.1278 39.3433 74.1586C39.9737 71.1893 38.0786 68.2686 35.1086 67.6416ZM32.8862 71.343C31.9609 71.9458 30.9588 72.0429 30.6436 71.5574C30.3284 71.072 30.8255 70.1942 31.7467 69.5914C32.6721 68.9887 33.6742 68.8916 33.9893 69.377C34.3045 69.8624 33.8075 70.7403 32.8862 71.343Z" fill="#FBB040"/>
<path d="M9.85411 37.4798C10.7673 37.4798 11.4057 37.0429 11.8179 36.428L11.2805 35.9911C10.9532 36.4604 10.5532 36.8042 9.85411 36.8042C9.05809 36.8042 8.43582 36.1408 8.43582 35.2508C8.43582 34.2597 9.0985 33.6732 9.80562 33.6732C10.5249 33.6732 10.9572 34.0818 11.1956 34.5996L11.733 34.551V33.1028H10.9896V33.5518C10.6784 33.212 10.2501 33.0138 9.6844 33.0138C8.55704 33.0138 7.57515 33.9159 7.57515 35.263C7.57111 36.5373 8.5732 37.4798 9.85411 37.4798Z" fill="#58595B"/>
<path d="M13.6564 35.2508C13.6564 36.5292 14.6343 37.4798 15.9475 37.4798C17.2406 37.4798 18.2224 36.5292 18.2224 35.2508C18.2224 33.9725 17.2406 33.0138 15.9475 33.0138C14.6343 33.0178 13.6564 33.9725 13.6564 35.2508ZM17.3537 35.2508C17.3537 36.1206 16.7961 36.8042 15.9475 36.8042C15.0666 36.8042 14.5211 36.1327 14.5211 35.2508C14.5211 34.3811 15.0666 33.6934 15.9475 33.6934C16.7961 33.6934 17.3537 34.369 17.3537 35.2508Z" fill="#58595B"/>
<path d="M20.1579 35.2508C20.1579 36.5292 21.1358 37.4798 22.449 37.4798C23.7421 37.4798 24.724 36.5292 24.724 35.2508C24.724 33.9725 23.7421 33.0138 22.449 33.0138C21.1358 33.0178 20.1579 33.9725 20.1579 35.2508ZM23.8552 35.2508C23.8552 36.1206 23.2976 36.8042 22.449 36.8042C21.5682 36.8042 21.0227 36.1327 21.0227 35.2508C21.0227 34.3811 21.5682 33.6934 22.449 33.6934C23.2976 33.6934 23.8552 34.369 23.8552 35.2508Z" fill="#58595B"/>
<path d="M29.6092 37.3989H31.7063V36.7436H31.2174L29.6092 34.9839L31.0881 33.7622H31.6013V33.1028H29.5163V33.7622H30.1668L28.1667 35.4207V33.7622H28.8738V33.1028H26.5827V33.7622H27.3343V36.7436H26.5827V37.3989H28.8738V36.7436H28.1667V36.1732L29.0354 35.4572L30.1668 36.7436H29.6092V37.3989Z" fill="#58595B"/>
<path d="M35.6945 33.7622V33.1028H33.3549V33.7622H34.1025V36.7436H33.3549V37.3989H35.6945V36.7436H34.9349V33.7622H35.6945Z" fill="#58595B"/>
<path d="M41.893 37.4434L42.3254 37.4353V33.7622H43.0486V33.1028H40.8101V33.7622H41.5617V36.0114L39.0322 33.1028H37.5007V33.7622H38.2523V36.7436H37.5007V37.3989H39.7716V36.7436H39.0322V34.2395L41.893 37.4434Z" fill="#58595B"/>
<path d="M47.1055 33.6732C47.8127 33.6732 48.2814 34.0858 48.5319 34.5227L49.0653 34.4863V33.1028H48.338V33.5518C47.9945 33.2282 47.5136 33.0138 46.9075 33.0138C45.7398 33.0138 44.7821 33.9725 44.7821 35.2508C44.7821 36.5332 45.6953 37.4879 47.1257 37.4879C47.95 37.4879 48.6531 37.1885 49.0653 36.8164V35.1376H47.057V35.7565H48.3218V36.4563C48.047 36.6586 47.6793 36.8083 47.1257 36.8083C46.261 36.8083 45.6428 36.1772 45.6428 35.2508C45.6428 34.2557 46.2974 33.6732 47.1055 33.6732Z" fill="#58595B"/>
<path d="M2.88388 42.9936C2.44345 43.5721 2.56063 44.3973 3.13845 44.8382C3.71627 45.2751 4.54058 45.1619 4.98102 44.5834C5.42146 44.0049 6.62559 41.0114 6.24981 40.7242C5.86998 40.441 3.32432 42.4151 2.88388 42.9936Z" fill="#58595B"/>
<path d="M9.65208 40.7484C9.18335 40.6716 7.84992 43.6085 7.73274 44.3245C7.61555 45.0405 8.10044 45.7201 8.81565 45.8374C9.53086 45.9547 10.2097 45.4693 10.3269 44.7533C10.4441 44.0373 10.1208 40.8293 9.65208 40.7484Z" fill="#58595B"/>
<path d="M1.88178 40.6351C2.53637 40.3196 4.97697 38.2161 4.77493 37.7872C4.56886 37.3584 1.40093 37.945 0.746335 38.2605C0.0917379 38.5761 -0.183031 39.3609 0.128104 40.0162C0.443281 40.6716 1.22718 40.9466 1.88178 40.6351Z" fill="#58595B"/>
</svg>
